<svg xmlns="http://www.w3.org/2000/svg" xmlns:xlink="http://www.w3.org/1999/xlink" width="348" zoomAndPan="magnify" viewBox="0 0 261 75.749997" height="101" preserveAspectRatio="xMidYMid meet" version="1.0"><defs><g/><clipPath id="f3cee2c26b"><path d="M 0.53125 0.664062 L 75 0.664062 L 75 75.417969 L 0.53125 75.417969 Z M 0.53125 0.664062 " clip-rule="nonzero"/></clipPath><clipPath id="835f661c36"><path d="M 55.453125 44.769531 L 65.171875 50.484375 C 66.226562 51.101562 66.578125 52.417969 65.960938 53.476562 C 62.796875 58.796875 58.355469 63.191406 53.078125 66.269531 C 47.933594 69.21875 41.953125 70.886719 35.621094 70.886719 C 35.183594 70.886719 34.609375 70.886719 33.949219 70.84375 L 33.863281 70.84375 C 33.203125 72.207031 32.148438 73.304688 30.871094 74.054688 C 29.203125 75.019531 27.179688 75.328125 25.199219 74.800781 C 23.175781 74.273438 21.59375 72.953125 20.628906 71.328125 C 19.660156 69.65625 19.351562 67.632812 19.878906 65.609375 C 20.40625 63.632812 21.726562 62.003906 23.351562 61.082031 C 25.023438 60.113281 27.089844 59.761719 29.070312 60.289062 C 31.046875 60.863281 32.675781 62.136719 33.644531 63.808594 C 34.082031 64.601562 34.390625 65.523438 34.566406 66.445312 C 34.875 66.445312 35.226562 66.492188 35.621094 66.492188 C 41.164062 66.492188 46.394531 64.996094 50.878906 62.445312 C 54.882812 60.113281 58.355469 56.949219 60.992188 53.121094 L 53.253906 48.59375 C 52.59375 49.515625 51.847656 50.351562 51.054688 51.1875 C 47.097656 55.101562 41.644531 57.5625 35.621094 57.5625 C 29.640625 57.5625 24.1875 55.101562 20.230469 51.1875 C 19.394531 50.308594 18.558594 49.339844 17.855469 48.328125 L 8.050781 53.828125 C 6.996094 54.441406 5.632812 54.046875 5.0625 52.992188 L 5.015625 52.992188 C 3.566406 50.308594 2.421875 47.496094 1.675781 44.59375 C 0.925781 41.734375 0.53125 38.789062 0.53125 35.753906 C 0.53125 32.058594 1.101562 28.5 2.160156 25.15625 C 3.125 22.121094 4.488281 19.308594 6.160156 16.714844 C 5.28125 15.4375 4.886719 13.988281 4.886719 12.492188 C 4.886719 10.601562 5.589844 8.667969 7.082031 7.214844 C 8.535156 5.71875 10.46875 5.015625 12.359375 5.015625 C 14.296875 5.015625 16.230469 5.71875 17.679688 7.214844 C 19.132812 8.667969 19.878906 10.601562 19.878906 12.492188 C 19.878906 14.425781 19.132812 16.363281 17.679688 17.8125 C 16.230469 19.265625 14.296875 20.011719 12.359375 20.011719 C 11.4375 20.011719 10.511719 19.835938 9.632812 19.484375 C 8.269531 21.636719 7.171875 24.011719 6.378906 26.476562 C 5.457031 29.421875 4.929688 32.542969 4.929688 35.753906 C 4.929688 38.4375 5.28125 41.03125 5.941406 43.492188 C 6.425781 45.339844 7.082031 47.144531 7.875 48.859375 L 15.703125 44.503906 C 14.515625 41.820312 13.855469 38.875 13.855469 35.753906 C 13.855469 29.773438 16.316406 24.320312 20.230469 20.363281 C 23.707031 16.933594 28.324219 14.648438 33.421875 14.121094 L 33.421875 2.863281 C 33.421875 1.632812 34.433594 0.664062 35.621094 0.664062 C 42.570312 0.664062 49.078125 2.6875 54.53125 6.203125 C 59.761719 9.546875 64.070312 14.207031 66.886719 19.792969 C 68.425781 19.660156 69.921875 20.011719 71.152344 20.757812 L 71.195312 20.757812 C 72.824219 21.726562 74.140625 23.308594 74.667969 25.332031 C 75.195312 27.3125 74.890625 29.332031 73.921875 31.003906 C 72.953125 32.675781 71.371094 33.996094 69.347656 34.523438 C 67.371094 35.050781 65.347656 34.699219 63.675781 33.773438 L 63.675781 33.730469 L 63.675781 33.773438 C 62.003906 32.808594 60.730469 31.179688 60.160156 29.203125 C 59.628906 27.222656 59.984375 25.199219 60.949219 23.53125 L 60.949219 23.484375 C 61.390625 22.695312 62.003906 21.945312 62.753906 21.375 C 60.289062 16.714844 56.597656 12.757812 52.15625 9.898438 C 47.976562 7.214844 43.097656 5.542969 37.863281 5.148438 L 37.863281 14.121094 C 42.964844 14.648438 47.582031 16.933594 51.054688 20.363281 C 54.96875 24.320312 57.433594 29.773438 57.433594 35.753906 C 57.433594 39.007812 56.730469 42.042969 55.453125 44.769531 Z M 47.933594 23.484375 C 44.769531 20.363281 40.414062 18.429688 35.621094 18.429688 C 30.871094 18.429688 26.519531 20.363281 23.351562 23.484375 C 20.230469 26.652344 18.296875 31.003906 18.296875 35.753906 C 18.296875 40.546875 20.230469 44.898438 23.351562 48.066406 C 26.519531 51.1875 30.871094 53.121094 35.621094 53.121094 C 40.414062 53.121094 44.769531 51.1875 47.933594 48.066406 C 51.054688 44.898438 52.992188 40.546875 52.992188 35.753906 C 52.992188 31.003906 51.054688 26.652344 47.933594 23.484375 Z M 35.621094 26.871094 C 38.085938 26.871094 40.328125 27.882812 41.910156 29.507812 C 43.535156 31.09375 44.546875 33.335938 44.546875 35.753906 C 44.546875 38.214844 43.535156 40.457031 41.910156 42.042969 C 40.328125 43.667969 38.085938 44.679688 35.621094 44.679688 C 33.203125 44.679688 30.960938 43.667969 29.378906 42.042969 C 27.75 40.457031 26.738281 38.214844 26.738281 35.753906 C 26.738281 33.335938 27.75 31.09375 29.378906 29.507812 C 30.960938 27.882812 33.203125 26.871094 35.621094 26.871094 Z M 38.789062 32.632812 C 37.996094 31.796875 36.898438 31.3125 35.621094 31.3125 C 34.390625 31.3125 33.292969 31.796875 32.5 32.632812 C 31.664062 33.421875 31.179688 34.523438 31.179688 35.753906 C 31.179688 37.027344 31.664062 38.128906 32.5 38.917969 C 33.292969 39.753906 34.390625 40.238281 35.621094 40.238281 C 36.898438 40.238281 37.996094 39.753906 38.789062 38.917969 C 39.625 38.128906 40.105469 37.027344 40.105469 35.753906 C 40.105469 34.523438 39.625 33.421875 38.789062 32.632812 Z M 12.359375 9.414062 C 11.570312 9.414062 10.777344 9.722656 10.207031 10.335938 C 9.589844 10.910156 9.28125 11.699219 9.28125 12.492188 C 9.28125 13.285156 9.589844 14.074219 10.207031 14.691406 C 10.777344 15.304688 11.570312 15.613281 12.359375 15.613281 C 13.152344 15.613281 13.941406 15.304688 14.558594 14.691406 C 15.175781 14.074219 15.480469 13.285156 15.480469 12.492188 C 15.480469 11.699219 15.175781 10.910156 14.558594 10.335938 C 13.941406 9.722656 13.152344 9.414062 12.359375 9.414062 Z M 24.453125 69.085938 C 24.847656 69.789062 25.507812 70.316406 26.34375 70.535156 C 27.136719 70.757812 27.96875 70.625 28.675781 70.226562 C 29.378906 69.832031 29.90625 69.171875 30.125 68.382812 C 30.34375 67.546875 30.214844 66.710938 29.816406 66.007812 C 29.421875 65.347656 28.761719 64.777344 27.925781 64.554688 C 27.089844 64.335938 26.253906 64.46875 25.597656 64.863281 C 24.890625 65.257812 24.363281 65.917969 24.144531 66.753906 C 23.925781 67.589844 24.058594 68.425781 24.453125 69.085938 Z M 70.097656 28.804688 C 70.492188 28.101562 70.625 27.265625 70.402344 26.476562 C 70.183594 25.640625 69.65625 24.980469 68.953125 24.585938 C 68.292969 24.1875 67.457031 24.058594 66.621094 24.277344 C 65.785156 24.496094 65.128906 25.023438 64.730469 25.726562 C 64.335938 26.386719 64.203125 27.222656 64.421875 28.058594 C 64.644531 28.894531 65.214844 29.554688 65.875 29.949219 C 66.578125 30.34375 67.414062 30.476562 68.25 30.257812 C 69.039062 30.039062 69.699219 29.507812 70.097656 28.804688 Z M 70.097656 28.804688 " clip-rule="nonzero"/></clipPath><linearGradient x1="5.467643" gradientTransform="matrix(4.397252, 0, 0, 4.397252, 0.531701, 0.66374)" y1="18.393142" x2="10.644645" gradientUnits="userSpaceOnUse" y2="-1.637405" id="5b3dec7dbb"><stop stop-opacity="1" stop-color="rgb(3.623962%, 3.556824%, 3.479004%)" offset="0"/><stop stop-opacity="1" stop-color="rgb(3.907776%, 3.83606%, 3.752136%)" offset="0.00390625"/><stop stop-opacity="1" stop-color="rgb(4.193115%, 4.115295%, 4.025269%)" offset="0.0078125"/><stop stop-opacity="1" stop-color="rgb(4.476929%, 4.394531%, 4.298401%)" offset="0.0117188"/><stop stop-opacity="1" stop-color="rgb(4.762268%, 4.673767%, 4.571533%)" offset="0.015625"/><stop stop-opacity="1" stop-color="rgb(5.046082%, 4.953003%, 4.844666%)" offset="0.0195313"/><stop stop-opacity="1" stop-color="rgb(5.331421%, 5.232239%, 5.117798%)" offset="0.0234375"/><stop stop-opacity="1" stop-color="rgb(5.615234%, 5.511475%, 5.39093%)" offset="0.0273438"/><stop stop-opacity="1" stop-color="rgb(5.900574%, 5.79071%, 5.664062%)" offset="0.03125"/><stop stop-opacity="1" stop-color="rgb(6.184387%, 6.069946%, 5.937195%)" offset="0.0351562"/><stop stop-opacity="1" stop-color="rgb(6.468201%, 6.349182%, 6.210327%)" offset="0.0390625"/><stop stop-opacity="1" stop-color="rgb(6.752014%, 6.626892%, 6.483459%)" offset="0.0429688"/><stop stop-opacity="1" stop-color="rgb(7.037354%, 6.906128%, 6.756592%)" offset="0.046875"/><stop stop-opacity="1" stop-color="rgb(7.321167%, 7.185364%, 7.029724%)" offset="0.0507812"/><stop stop-opacity="1" stop-color="rgb(7.606506%, 7.4646%, 7.302856%)" offset="0.0546875"/><stop stop-opacity="1" stop-color="rgb(7.89032%, 7.743835%, 7.575989%)" offset="0.0585937"/><stop stop-opacity="1" stop-color="rgb(8.175659%, 8.023071%, 7.849121%)" offset="0.0625"/><stop stop-opacity="1" stop-color="rgb(8.459473%, 8.302307%, 8.122253%)" offset="0.0664062"/><stop stop-opacity="1" stop-color="rgb(8.744812%, 8.581543%, 8.395386%)" offset="0.0703125"/><stop stop-opacity="1" stop-color="rgb(9.028625%, 8.860779%, 8.668518%)" offset="0.0742188"/><stop stop-opacity="1" stop-color="rgb(9.313965%, 9.140015%, 8.94165%)" offset="0.078125"/><stop stop-opacity="1" stop-color="rgb(9.597778%, 9.41925%, 9.214783%)" offset="0.0820312"/><stop stop-opacity="1" stop-color="rgb(9.883118%, 9.698486%, 9.487915%)" offset="0.0859375"/><stop stop-opacity="1" stop-color="rgb(10.166931%, 9.977722%, 9.761047%)" offset="0.0898438"/><stop stop-opacity="1" stop-color="rgb(10.452271%, 10.256958%, 10.035706%)" offset="0.09375"/><stop stop-opacity="1" stop-color="rgb(10.736084%, 10.536194%, 10.308838%)" offset="0.0976563"/><stop stop-opacity="1" stop-color="rgb(11.021423%, 10.81543%, 10.58197%)" offset="0.101562"/><stop stop-opacity="1" stop-color="rgb(11.305237%, 11.094666%, 10.855103%)" offset="0.105469"/><stop stop-opacity="1" stop-color="rgb(11.590576%, 11.373901%, 11.128235%)" offset="0.109375"/><stop stop-opacity="1" stop-color="rgb(11.87439%, 11.653137%, 11.401367%)" offset="0.113281"/><stop stop-opacity="1" stop-color="rgb(12.158203%, 11.932373%, 11.6745%)" offset="0.117187"/><stop stop-opacity="1" stop-color="rgb(12.442017%, 12.211609%, 11.947632%)" offset="0.121094"/><stop stop-opacity="1" stop-color="rgb(12.727356%, 12.490845%, 12.220764%)" offset="0.125"/><stop stop-opacity="1" stop-color="rgb(13.011169%, 12.770081%, 12.493896%)" offset="0.128906"/><stop stop-opacity="1" stop-color="rgb(13.296509%, 13.049316%, 12.767029%)" offset="0.132812"/><stop stop-opacity="1" stop-color="rgb(13.580322%, 13.328552%, 13.040161%)" offset="0.136719"/><stop stop-opacity="1" stop-color="rgb(13.865662%, 13.607788%, 13.313293%)" offset="0.140625"/><stop stop-opacity="1" stop-color="rgb(14.149475%, 13.887024%, 13.586426%)" offset="0.144531"/><stop stop-opacity="1" stop-color="rgb(14.434814%, 14.16626%, 13.859558%)" offset="0.148438"/><stop stop-opacity="1" stop-color="rgb(14.718628%, 14.445496%, 14.13269%)" offset="0.152344"/><stop stop-opacity="1" stop-color="rgb(15.003967%, 14.724731%, 14.405823%)" offset="0.15625"/><stop stop-opacity="1" stop-color="rgb(15.287781%, 15.003967%, 14.678955%)" offset="0.160156"/><stop stop-opacity="1" stop-color="rgb(15.57312%, 15.283203%, 14.952087%)" offset="0.164062"/><stop stop-opacity="1" stop-color="rgb(15.856934%, 15.562439%, 15.22522%)" offset="0.167969"/><stop stop-opacity="1" stop-color="rgb(16.142273%, 15.841675%, 15.498352%)" offset="0.171875"/><stop stop-opacity="1" stop-color="rgb(16.426086%, 16.120911%, 15.771484%)" offset="0.175781"/><stop stop-opacity="1" stop-color="rgb(16.711426%, 16.400146%, 16.044617%)" offset="0.179688"/><stop stop-opacity="1" stop-color="rgb(16.995239%, 16.679382%, 16.317749%)" offset="0.183594"/><stop stop-opacity="1" stop-color="rgb(17.280579%, 16.958618%, 16.590881%)" offset="0.1875"/><stop stop-opacity="1" stop-color="rgb(17.564392%, 17.237854%, 16.864014%)" offset="0.191406"/><stop stop-opacity="1" stop-color="rgb(17.849731%, 17.51709%, 17.137146%)" offset="0.195312"/><stop stop-opacity="1" stop-color="rgb(18.133545%, 17.796326%, 17.410278%)" offset="0.199219"/><stop stop-opacity="1" stop-color="rgb(18.417358%, 18.075562%, 17.683411%)" offset="0.203125"/><stop stop-opacity="1" stop-color="rgb(18.701172%, 18.354797%, 17.956543%)" offset="0.207031"/><stop stop-opacity="1" stop-color="rgb(18.986511%, 18.634033%, 18.229675%)" offset="0.210937"/><stop stop-opacity="1" stop-color="rgb(19.270325%, 18.913269%, 18.502808%)" offset="0.214844"/><stop stop-opacity="1" stop-color="rgb(19.555664%, 19.192505%, 18.77594%)" offset="0.21875"/><stop stop-opacity="1" stop-color="rgb(19.839478%, 19.471741%, 19.049072%)" offset="0.222656"/><stop stop-opacity="1" stop-color="rgb(20.124817%, 19.750977%, 19.322205%)" offset="0.226562"/><stop stop-opacity="1" stop-color="rgb(20.40863%, 20.030212%, 19.595337%)" offset="0.230469"/><stop stop-opacity="1" stop-color="rgb(20.69397%, 20.309448%, 19.868469%)" offset="0.234375"/><stop stop-opacity="1" stop-color="rgb(20.977783%, 20.588684%, 20.141602%)" offset="0.238281"/><stop stop-opacity="1" stop-color="rgb(21.263123%, 20.86792%, 20.414734%)" offset="0.242187"/><stop stop-opacity="1" stop-color="rgb(21.546936%, 21.14563%, 20.687866%)" offset="0.246094"/><stop stop-opacity="1" stop-color="rgb(21.832275%, 21.424866%, 20.960999%)" offset="0.25"/><stop stop-opacity="1" stop-color="rgb(22.116089%, 21.704102%, 21.234131%)" offset="0.253906"/><stop stop-opacity="1" stop-color="rgb(22.401428%, 21.983337%, 21.507263%)" offset="0.257813"/><stop stop-opacity="1" stop-color="rgb(22.685242%, 22.262573%, 21.780396%)" offset="0.261719"/><stop stop-opacity="1" stop-color="rgb(22.970581%, 22.541809%, 22.053528%)" offset="0.265625"/><stop stop-opacity="1" stop-color="rgb(23.254395%, 22.821045%, 22.32666%)" offset="0.269531"/><stop stop-opacity="1" stop-color="rgb(23.539734%, 23.100281%, 22.599792%)" offset="0.273438"/><stop stop-opacity="1" stop-color="rgb(23.823547%, 23.379517%, 22.872925%)" offset="0.277344"/><stop stop-opacity="1" stop-color="rgb(24.107361%, 23.658752%, 23.146057%)" offset="0.28125"/><stop stop-opacity="1" stop-color="rgb(24.391174%, 23.937988%, 23.419189%)" offset="0.285156"/><stop stop-opacity="1" stop-color="rgb(24.676514%, 24.217224%, 23.692322%)" offset="0.289062"/><stop stop-opacity="1" stop-color="rgb(24.960327%, 24.49646%, 23.965454%)" offset="0.292969"/><stop stop-opacity="1" stop-color="rgb(25.245667%, 24.775696%, 24.238586%)" offset="0.296875"/><stop stop-opacity="1" stop-color="rgb(25.52948%, 25.054932%, 24.511719%)" offset="0.300781"/><stop stop-opacity="1" stop-color="rgb(25.814819%, 25.334167%, 24.784851%)" offset="0.304688"/><stop stop-opacity="1" stop-color="rgb(26.098633%, 25.613403%, 25.057983%)" offset="0.308594"/><stop stop-opacity="1" stop-color="rgb(26.383972%, 25.892639%, 25.331116%)" offset="0.3125"/><stop stop-opacity="1" stop-color="rgb(26.667786%, 26.171875%, 25.604248%)" offset="0.316406"/><stop stop-opacity="1" stop-color="rgb(26.953125%, 26.451111%, 25.87738%)" offset="0.320312"/><stop stop-opacity="1" stop-color="rgb(27.236938%, 26.730347%, 26.150513%)" offset="0.324219"/><stop stop-opacity="1" stop-color="rgb(27.522278%, 27.009583%, 26.423645%)" offset="0.328125"/><stop stop-opacity="1" stop-color="rgb(27.806091%, 27.288818%, 26.696777%)" offset="0.332031"/><stop stop-opacity="1" stop-color="rgb(28.091431%, 27.568054%, 26.96991%)" offset="0.335938"/><stop stop-opacity="1" stop-color="rgb(28.375244%, 27.84729%, 27.243042%)" offset="0.339844"/><stop stop-opacity="1" stop-color="rgb(28.660583%, 28.126526%, 27.516174%)" offset="0.34375"/><stop stop-opacity="1" stop-color="rgb(28.944397%, 28.405762%, 27.789307%)" offset="0.347656"/><stop stop-opacity="1" stop-color="rgb(29.229736%, 28.684998%, 28.062439%)" offset="0.351563"/><stop stop-opacity="1" stop-color="rgb(29.51355%, 28.964233%, 28.335571%)" offset="0.355469"/><stop stop-opacity="1" stop-color="rgb(29.797363%, 29.243469%, 28.608704%)" offset="0.359375"/><stop stop-opacity="1" stop-color="rgb(30.081177%, 29.522705%, 28.881836%)" offset="0.363281"/><stop stop-opacity="1" stop-color="rgb(30.366516%, 29.801941%, 29.154968%)" offset="0.367188"/><stop stop-opacity="1" stop-color="rgb(30.65033%, 30.081177%, 29.428101%)" offset="0.371094"/><stop stop-opacity="1" stop-color="rgb(30.935669%, 30.360413%, 29.701233%)" offset="0.375"/><stop stop-opacity="1" stop-color="rgb(31.219482%, 30.639648%, 29.974365%)" offset="0.378906"/><stop stop-opacity="1" stop-color="rgb(31.504822%, 30.918884%, 30.247498%)" offset="0.382813"/><stop stop-opacity="1" stop-color="rgb(31.788635%, 31.19812%, 30.52063%)" offset="0.386719"/><stop stop-opacity="1" stop-color="rgb(32.073975%, 31.477356%, 30.795288%)" offset="0.390625"/><stop stop-opacity="1" stop-color="rgb(32.357788%, 31.756592%, 31.06842%)" offset="0.394531"/><stop stop-opacity="1" stop-color="rgb(32.643127%, 32.035828%, 31.341553%)" offset="0.398438"/><stop stop-opacity="1" stop-color="rgb(32.926941%, 32.315063%, 31.614685%)" offset="0.402344"/><stop stop-opacity="1" stop-color="rgb(33.21228%, 32.594299%, 31.887817%)" offset="0.40625"/><stop stop-opacity="1" stop-color="rgb(33.496094%, 32.873535%, 32.16095%)" offset="0.410156"/><stop stop-opacity="1" stop-color="rgb(33.781433%, 33.152771%, 32.434082%)" offset="0.414063"/><stop stop-opacity="1" stop-color="rgb(34.065247%, 33.432007%, 32.707214%)" offset="0.417969"/><stop stop-opacity="1" stop-color="rgb(34.350586%, 33.711243%, 32.980347%)" offset="0.421875"/><stop stop-opacity="1" stop-color="rgb(34.634399%, 33.990479%, 33.253479%)" offset="0.425781"/><stop stop-opacity="1" stop-color="rgb(34.919739%, 34.269714%, 33.526611%)" offset="0.429688"/><stop stop-opacity="1" stop-color="rgb(35.203552%, 34.54895%, 33.799744%)" offset="0.433594"/><stop stop-opacity="1" stop-color="rgb(35.488892%, 34.828186%, 34.072876%)" offset="0.4375"/><stop stop-opacity="1" stop-color="rgb(35.772705%, 35.105896%, 34.346008%)" offset="0.441406"/><stop stop-opacity="1" stop-color="rgb(36.056519%, 35.385132%, 34.619141%)" offset="0.445312"/><stop stop-opacity="1" stop-color="rgb(36.340332%, 35.664368%, 34.892273%)" offset="0.449219"/><stop stop-opacity="1" stop-color="rgb(36.625671%, 35.943604%, 35.165405%)" offset="0.453125"/><stop stop-opacity="1" stop-color="rgb(36.909485%, 36.222839%, 35.438538%)" offset="0.457031"/><stop stop-opacity="1" stop-color="rgb(37.194824%, 36.502075%, 35.71167%)" offset="0.460938"/><stop stop-opacity="1" stop-color="rgb(37.432861%, 36.735535%, 35.940552%)" offset="0.464844"/><stop stop-opacity="1" stop-color="rgb(37.670898%, 36.968994%, 36.169434%)" offset="0.46875"/><stop stop-opacity="1" stop-color="rgb(37.792969%, 37.088013%, 36.288452%)" offset="0.476563"/><stop stop-opacity="1" stop-color="rgb(38.040161%, 37.327576%, 36.528015%)" offset="0.484375"/><stop stop-opacity="1" stop-color="rgb(38.285828%, 37.567139%, 36.767578%)" offset="0.492188"/><stop stop-opacity="1" stop-color="rgb(38.531494%, 37.806702%, 37.007141%)" offset="0.5"/><stop stop-opacity="1" stop-color="rgb(38.778687%, 38.046265%, 37.246704%)" offset="0.507812"/><stop stop-opacity="1" stop-color="rgb(39.024353%, 38.285828%, 37.486267%)" offset="0.515625"/><stop stop-opacity="1" stop-color="rgb(39.27002%, 38.525391%, 37.72583%)" offset="0.523438"/><stop stop-opacity="1" stop-color="rgb(39.517212%, 38.764954%, 37.965393%)" offset="0.53125"/><stop stop-opacity="1" stop-color="rgb(39.762878%, 39.004517%, 38.204956%)" offset="0.539062"/><stop stop-opacity="1" stop-color="rgb(40.010071%, 39.24408%, 38.444519%)" offset="0.546875"/><stop stop-opacity="1" stop-color="rgb(40.255737%, 39.483643%, 38.684082%)" offset="0.554688"/><stop stop-opacity="1" stop-color="rgb(40.501404%, 39.723206%, 38.923645%)" offset="0.5625"/><stop stop-opacity="1" stop-color="rgb(40.748596%, 39.962769%, 39.163208%)" offset="0.570313"/><stop stop-opacity="1" stop-color="rgb(40.994263%, 40.202332%, 39.402771%)" offset="0.578125"/><stop stop-opacity="1" stop-color="rgb(41.239929%, 40.441895%, 39.642334%)" offset="0.585938"/><stop stop-opacity="1" stop-color="rgb(41.487122%, 40.681458%, 39.881897%)" offset="0.59375"/><stop stop-opacity="1" stop-color="rgb(41.732788%, 40.922546%, 40.12146%)" offset="0.601562"/><stop stop-opacity="1" stop-color="rgb(41.97998%, 41.162109%, 40.361023%)" offset="0.609375"/><stop stop-opacity="1" stop-color="rgb(42.225647%, 41.401672%, 40.600586%)" offset="0.617188"/><stop stop-opacity="1" stop-color="rgb(42.471313%, 41.641235%, 40.840149%)" offset="0.625"/><stop stop-opacity="1" stop-color="rgb(42.718506%, 41.880798%, 41.079712%)" offset="0.632812"/><stop stop-opacity="1" stop-color="rgb(42.964172%, 42.120361%, 41.319275%)" offset="0.640625"/><stop stop-opacity="1" stop-color="rgb(43.209839%, 42.359924%, 41.560364%)" offset="0.648438"/><stop stop-opacity="1" stop-color="rgb(43.457031%, 42.599487%, 41.799927%)" offset="0.65625"/><stop stop-opacity="1" stop-color="rgb(43.702698%, 42.83905%, 42.03949%)" offset="0.664063"/><stop stop-opacity="1" stop-color="rgb(43.94989%, 43.078613%, 42.279053%)" offset="0.671875"/><stop stop-opacity="1" stop-color="rgb(44.195557%, 43.318176%, 42.518616%)" offset="0.679688"/><stop stop-opacity="1" stop-color="rgb(44.441223%, 43.557739%, 42.758179%)" offset="0.6875"/><stop stop-opacity="1" stop-color="rgb(44.688416%, 43.797302%, 42.997742%)" offset="0.695312"/><stop stop-opacity="1" stop-color="rgb(44.934082%, 44.036865%, 43.237305%)" offset="0.703125"/><stop stop-opacity="1" stop-color="rgb(45.179749%, 44.276428%, 43.476868%)" offset="0.710938"/><stop stop-opacity="1" stop-color="rgb(45.426941%, 44.515991%, 43.716431%)" offset="0.71875"/><stop stop-opacity="1" stop-color="rgb(45.672607%, 44.755554%, 43.955994%)" offset="0.726562"/><stop stop-opacity="1" stop-color="rgb(45.9198%, 44.995117%, 44.195557%)" offset="0.734375"/><stop stop-opacity="1" stop-color="rgb(46.165466%, 45.23468%, 44.43512%)" offset="0.742188"/><stop stop-opacity="1" stop-color="rgb(46.411133%, 45.474243%, 44.674683%)" offset="0.75"/><stop stop-opacity="1" stop-color="rgb(46.658325%, 45.713806%, 44.914246%)" offset="0.757813"/><stop stop-opacity="1" stop-color="rgb(46.903992%, 45.953369%, 45.153809%)" offset="0.765625"/><stop stop-opacity="1" stop-color="rgb(47.149658%, 46.192932%, 45.393372%)" offset="0.773437"/><stop stop-opacity="1" stop-color="rgb(47.396851%, 46.434021%, 45.632935%)" offset="0.78125"/><stop stop-opacity="1" stop-color="rgb(47.642517%, 46.673584%, 45.872498%)" offset="0.789062"/><stop stop-opacity="1" stop-color="rgb(47.889709%, 46.913147%, 46.112061%)" offset="0.794625"/><stop stop-opacity="1" stop-color="rgb(48.013306%, 47.033691%, 46.232605%)" offset="0.796875"/><stop stop-opacity="1" stop-color="rgb(48.135376%, 47.15271%, 46.351624%)" offset="0.804688"/><stop stop-opacity="1" stop-color="rgb(48.381042%, 47.392273%, 46.591187%)" offset="0.8125"/><stop stop-opacity="1" stop-color="rgb(48.628235%, 47.631836%, 46.83075%)" offset="0.820312"/><stop stop-opacity="1" stop-color="rgb(48.873901%, 47.871399%, 47.070312%)" offset="0.828125"/><stop stop-opacity="1" stop-color="rgb(49.119568%, 48.110962%, 47.311401%)" offset="0.835938"/><stop stop-opacity="1" stop-color="rgb(49.36676%, 48.350525%, 47.550964%)" offset="0.84375"/><stop stop-opacity="1" stop-color="rgb(49.612427%, 48.590088%, 47.790527%)" offset="0.851563"/><stop stop-opacity="1" stop-color="rgb(49.859619%, 48.829651%, 48.03009%)" offset="0.859375"/><stop stop-opacity="1" stop-color="rgb(50.105286%, 49.069214%, 48.269653%)" offset="0.867187"/><stop stop-opacity="1" stop-color="rgb(50.350952%, 49.308777%, 48.509216%)" offset="0.875"/><stop stop-opacity="1" stop-color="rgb(50.598145%, 49.54834%, 48.748779%)" offset="0.882812"/><stop stop-opacity="1" stop-color="rgb(50.843811%, 49.787903%, 48.988342%)" offset="0.890625"/><stop stop-opacity="1" stop-color="rgb(51.089478%, 50.027466%, 49.227905%)" offset="0.898438"/><stop stop-opacity="1" stop-color="rgb(51.33667%, 50.267029%, 49.467468%)" offset="0.90625"/><stop stop-opacity="1" stop-color="rgb(51.582336%, 50.506592%, 49.707031%)" offset="0.914062"/><stop stop-opacity="1" stop-color="rgb(51.829529%, 50.746155%, 49.946594%)" offset="0.921875"/><stop stop-opacity="1" stop-color="rgb(52.075195%, 50.985718%, 50.186157%)" offset="0.929688"/><stop stop-opacity="1" stop-color="rgb(52.320862%, 51.225281%, 50.42572%)" offset="0.9375"/><stop stop-opacity="1" stop-color="rgb(52.471924%, 51.371765%, 50.572205%)" offset="1"/></linearGradient></defs><g clip-path="url(#f3cee2c26b)"><g clip-path="url(#835f661c36)"><path fill="url(#5b3dec7dbb)" d="M 0.53125 0.664062 L 0.53125 75.328125 L 75.195312 75.328125 L 75.195312 0.664062 Z M 0.53125 0.664062 " fill-rule="nonzero"/></g></g><g fill="#000000" fill-opacity="1"><g transform="translate(95.285201, 32.090772)"><g><path d="M 3.6875 -12.4375 C 3.6875 -11.769531 3.945312 -11.148438 4.46875 -10.578125 C 4.988281 -10.015625 5.625 -9.515625 6.375 -9.078125 C 7.125 -8.648438 7.867188 -8.210938 8.609375 -7.765625 C 9.359375 -7.316406 9.992188 -6.765625 10.515625 -6.109375 C 11.035156 -5.460938 11.296875 -4.742188 11.296875 -3.953125 C 11.296875 -2.710938 10.835938 -1.695312 9.921875 -0.90625 C 9.003906 -0.125 7.765625 0.265625 6.203125 0.265625 C 4.640625 0.265625 3.09375 -0.0234375 1.5625 -0.609375 L 1.5625 -1.6875 C 3.113281 -0.90625 4.429688 -0.515625 5.515625 -0.515625 C 6.597656 -0.515625 7.441406 -0.78125 8.046875 -1.3125 C 8.648438 -1.84375 8.953125 -2.582031 8.953125 -3.53125 C 8.953125 -4.164062 8.703125 -4.742188 8.203125 -5.265625 C 7.703125 -5.785156 7.09375 -6.238281 6.375 -6.625 C 5.664062 -7.007812 4.957031 -7.40625 4.25 -7.8125 C 3.539062 -8.226562 2.9375 -8.75 2.4375 -9.375 C 1.9375 -10.007812 1.6875 -10.769531 1.6875 -11.65625 C 1.6875 -12.550781 2.082031 -13.382812 2.875 -14.15625 C 3.664062 -14.9375 4.851562 -15.328125 6.4375 -15.328125 C 7.46875 -15.328125 8.769531 -15.09375 10.34375 -14.625 L 10.109375 -13.078125 C 8.066406 -13.953125 6.316406 -14.390625 4.859375 -14.390625 C 4.078125 -14.015625 3.6875 -13.363281 3.6875 -12.4375 Z M 3.6875 -12.4375 "/></g></g></g><g fill="#000000" fill-opacity="1"><g transform="translate(111.037252, 32.090772)"><g><path d="M 4.140625 -15.046875 L 4.140625 0 L 2.046875 0 L 2.046875 -15.046875 Z M 4.140625 -15.046875 "/></g></g></g><g fill="#000000" fill-opacity="1"><g transform="translate(120.334075, 32.090772)"><g><path d="M 3.6875 -12.4375 C 3.6875 -11.769531 3.945312 -11.148438 4.46875 -10.578125 C 4.988281 -10.015625 5.625 -9.515625 6.375 -9.078125 C 7.125 -8.648438 7.867188 -8.210938 8.609375 -7.765625 C 9.359375 -7.316406 9.992188 -6.765625 10.515625 -6.109375 C 11.035156 -5.460938 11.296875 -4.742188 11.296875 -3.953125 C 11.296875 -2.710938 10.835938 -1.695312 9.921875 -0.90625 C 9.003906 -0.125 7.765625 0.265625 6.203125 0.265625 C 4.640625 0.265625 3.09375 -0.0234375 1.5625 -0.609375 L 1.5625 -1.6875 C 3.113281 -0.90625 4.429688 -0.515625 5.515625 -0.515625 C 6.597656 -0.515625 7.441406 -0.78125 8.046875 -1.3125 C 8.648438 -1.84375 8.953125 -2.582031 8.953125 -3.53125 C 8.953125 -4.164062 8.703125 -4.742188 8.203125 -5.265625 C 7.703125 -5.785156 7.09375 -6.238281 6.375 -6.625 C 5.664062 -7.007812 4.957031 -7.40625 4.25 -7.8125 C 3.539062 -8.226562 2.9375 -8.75 2.4375 -9.375 C 1.9375 -10.007812 1.6875 -10.769531 1.6875 -11.65625 C 1.6875 -12.550781 2.082031 -13.382812 2.875 -14.15625 C 3.664062 -14.9375 4.851562 -15.328125 6.4375 -15.328125 C 7.46875 -15.328125 8.769531 -15.09375 10.34375 -14.625 L 10.109375 -13.078125 C 8.066406 -13.953125 6.316406 -14.390625 4.859375 -14.390625 C 4.078125 -14.015625 3.6875 -13.363281 3.6875 -12.4375 Z M 3.6875 -12.4375 "/></g></g></g><g fill="#000000" fill-opacity="1"><g transform="translate(136.086126, 32.090772)"><g><path d="M 0.890625 -5.84375 L 6.484375 -5.84375 L 6.484375 -4.40625 L 0.890625 -4.40625 Z M 0.890625 -5.84375 "/></g></g></g><g fill="#000000" fill-opacity="1"><g transform="translate(146.76946, 32.090772)"><g><path d="M 4.25 -7.453125 L 4.25 0 L 2.046875 0 L 2.046875 -15.046875 L 4.25 -15.046875 L 4.25 -8.328125 L 11.140625 -8.328125 L 11.140625 -15.046875 L 13.34375 -15.046875 L 13.34375 0 L 11.140625 0 L 11.140625 -7.453125 Z M 4.25 -7.453125 "/></g></g></g><g fill="#000000" fill-opacity="1"><g transform="translate(165.271799, 32.090772)"><g><path d="M 13.234375 -15.046875 L 13.234375 -5.8125 C 13.234375 -4.40625 13.082031 -3.347656 12.78125 -2.640625 C 12.644531 -2.316406 12.425781 -1.953125 12.125 -1.546875 C 11.832031 -1.148438 11.488281 -0.832031 11.09375 -0.59375 C 10.09375 -0.0195312 8.84375 0.265625 7.34375 0.265625 C 3.582031 0.265625 1.703125 -1.664062 1.703125 -5.53125 L 1.703125 -15.046875 L 4.03125 -15.046875 L 4.03125 -5.34375 C 4.03125 -4.90625 4.035156 -4.546875 4.046875 -4.265625 C 4.054688 -3.992188 4.132812 -3.609375 4.28125 -3.109375 C 4.425781 -2.609375 4.625 -2.207031 4.875 -1.90625 C 5.125 -1.601562 5.515625 -1.332031 6.046875 -1.09375 C 6.585938 -0.851562 7.234375 -0.734375 7.984375 -0.734375 C 10.816406 -0.734375 12.234375 -2.25 12.234375 -5.28125 L 12.234375 -15.046875 Z M 13.234375 -15.046875 "/></g></g></g><g fill="#000000" fill-opacity="1"><g transform="translate(183.319545, 32.090772)"><g><path d="M 2.046875 0 L 2.046875 -15.046875 L 6.34375 -15.046875 C 8.082031 -15.046875 9.46875 -14.75 10.5 -14.15625 C 11.53125 -13.570312 12.046875 -12.6875 12.046875 -11.5 C 12.046875 -10.664062 11.753906 -9.941406 11.171875 -9.328125 C 10.585938 -8.710938 9.773438 -8.25 8.734375 -7.9375 C 10.109375 -7.675781 11.144531 -7.207031 11.84375 -6.53125 C 12.550781 -5.863281 12.90625 -5.125 12.90625 -4.3125 C 12.90625 -3.507812 12.703125 -2.820312 12.296875 -2.25 C 11.890625 -1.6875 11.367188 -1.253906 10.734375 -0.953125 C 9.441406 -0.316406 8.125 0 6.78125 0 Z M 4.25 -8.15625 L 5.890625 -8.15625 C 7.265625 -8.15625 8.25 -8.460938 8.84375 -9.078125 C 9.445312 -9.691406 9.75 -10.460938 9.75 -11.390625 C 9.75 -12.015625 9.539062 -12.578125 9.125 -13.078125 C 8.707031 -13.585938 8.066406 -13.972656 7.203125 -14.234375 C 6.171875 -14.234375 5.1875 -14.082031 4.25 -13.78125 Z M 4.25 -7.5 L 4.25 -1.015625 C 4.738281 -0.867188 5.488281 -0.796875 6.5 -0.796875 C 7.519531 -0.796875 8.421875 -1.078125 9.203125 -1.640625 C 9.992188 -2.203125 10.390625 -2.984375 10.390625 -3.984375 C 10.390625 -4.984375 9.957031 -5.816406 9.09375 -6.484375 C 8.226562 -7.160156 7.191406 -7.5 5.984375 -7.5 Z M 4.25 -7.5 "/></g></g></g><g fill="#000000" fill-opacity="1"><g transform="translate(82.395918, 52.913841)"><g><path d="M 3.15625 0.078125 C 2.613281 0.078125 2.09375 -0.00390625 1.59375 -0.171875 C 1.09375 -0.335938 0.703125 -0.550781 0.421875 -0.8125 L 0.796875 -1.609375 C 1.066406 -1.367188 1.414062 -1.171875 1.84375 -1.015625 C 2.269531 -0.859375 2.707031 -0.78125 3.15625 -0.78125 C 3.75 -0.78125 4.191406 -0.878906 4.484375 -1.078125 C 4.773438 -1.285156 4.921875 -1.554688 4.921875 -1.890625 C 4.921875 -2.140625 4.835938 -2.335938 4.671875 -2.484375 C 4.515625 -2.640625 4.316406 -2.757812 4.078125 -2.84375 C 3.847656 -2.925781 3.519531 -3.015625 3.09375 -3.109375 C 2.550781 -3.242188 2.113281 -3.375 1.78125 -3.5 C 1.457031 -3.632812 1.175781 -3.832031 0.9375 -4.09375 C 0.707031 -4.363281 0.59375 -4.726562 0.59375 -5.1875 C 0.59375 -5.570312 0.691406 -5.914062 0.890625 -6.21875 C 1.097656 -6.53125 1.40625 -6.773438 1.8125 -6.953125 C 2.21875 -7.140625 2.722656 -7.234375 3.328125 -7.234375 C 3.753906 -7.234375 4.171875 -7.175781 4.578125 -7.0625 C 4.984375 -6.957031 5.332031 -6.800781 5.625 -6.59375 L 5.296875 -5.78125 C 4.992188 -5.96875 4.671875 -6.109375 4.328125 -6.203125 C 3.992188 -6.304688 3.660156 -6.359375 3.328125 -6.359375 C 2.753906 -6.359375 2.320312 -6.253906 2.03125 -6.046875 C 1.738281 -5.835938 1.59375 -5.566406 1.59375 -5.234375 C 1.59375 -4.984375 1.671875 -4.78125 1.828125 -4.625 C 1.992188 -4.476562 2.195312 -4.363281 2.4375 -4.28125 C 2.6875 -4.195312 3.019531 -4.101562 3.4375 -4 C 3.96875 -3.875 4.394531 -3.742188 4.71875 -3.609375 C 5.050781 -3.484375 5.332031 -3.285156 5.5625 -3.015625 C 5.800781 -2.753906 5.921875 -2.398438 5.921875 -1.953125 C 5.921875 -1.578125 5.816406 -1.234375 5.609375 -0.921875 C 5.410156 -0.609375 5.101562 -0.363281 4.6875 -0.1875 C 4.269531 -0.0078125 3.757812 0.078125 3.15625 0.078125 Z M 3.15625 0.078125 "/></g></g></g><g fill="#000000" fill-opacity="1"><g transform="translate(96.060492, 52.913841)"><g><path d="M 6.265625 -0.890625 L 6.265625 0 L 1.078125 0 L 1.078125 -7.15625 L 6.125 -7.15625 L 6.125 -6.265625 L 2.09375 -6.265625 L 2.09375 -4.0625 L 5.6875 -4.0625 L 5.6875 -3.203125 L 2.09375 -3.203125 L 2.09375 -0.890625 Z M 6.265625 -0.890625 "/></g></g></g><g fill="#000000" fill-opacity="1"><g transform="translate(110.225273, 52.913841)"><g><path d="M 7.21875 -7.15625 L 7.21875 0 L 6.390625 0 L 2.09375 -5.328125 L 2.09375 0 L 1.078125 0 L 1.078125 -7.15625 L 1.90625 -7.15625 L 6.203125 -1.8125 L 6.203125 -7.15625 Z M 7.21875 -7.15625 "/></g></g></g><g fill="#000000" fill-opacity="1"><g transform="translate(125.839654, 52.913841)"><g><path d="M 5.625 -1.78125 L 1.828125 -1.78125 L 1.046875 0 L -0.015625 0 L 3.234375 -7.15625 L 4.234375 -7.15625 L 7.484375 0 L 6.421875 0 Z M 5.265625 -2.609375 L 3.734375 -6.109375 L 2.1875 -2.609375 Z M 5.265625 -2.609375 "/></g></g></g><g fill="#000000" fill-opacity="1"><g transform="translate(140.637355, 52.913841)"><g/></g></g><g fill="#000000" fill-opacity="1"><g transform="translate(150.708568, 52.913841)"><g><path d="M 0.578125 -3.234375 L 3.328125 -3.234375 L 3.328125 -2.375 L 0.578125 -2.375 Z M 0.578125 -3.234375 "/></g></g></g><g fill="#000000" fill-opacity="1"><g transform="translate(161.943535, 52.913841)"><g/></g></g><g fill="#000000" fill-opacity="1"><g transform="translate(172.014748, 52.913841)"><g><path d="M 4.265625 0.078125 C 3.554688 0.078125 2.910156 -0.078125 2.328125 -0.390625 C 1.753906 -0.710938 1.300781 -1.148438 0.96875 -1.703125 C 0.644531 -2.253906 0.484375 -2.878906 0.484375 -3.578125 C 0.484375 -4.273438 0.644531 -4.898438 0.96875 -5.453125 C 1.300781 -6.003906 1.753906 -6.4375 2.328125 -6.75 C 2.910156 -7.070312 3.5625 -7.234375 4.28125 -7.234375 C 4.84375 -7.234375 5.351562 -7.140625 5.8125 -6.953125 C 6.28125 -6.765625 6.675781 -6.488281 7 -6.125 L 6.328125 -5.484375 C 5.796875 -6.046875 5.128906 -6.328125 4.328125 -6.328125 C 3.796875 -6.328125 3.3125 -6.207031 2.875 -5.96875 C 2.445312 -5.726562 2.113281 -5.398438 1.875 -4.984375 C 1.632812 -4.566406 1.515625 -4.097656 1.515625 -3.578125 C 1.515625 -3.054688 1.632812 -2.585938 1.875 -2.171875 C 2.113281 -1.753906 2.445312 -1.425781 2.875 -1.1875 C 3.3125 -0.945312 3.796875 -0.828125 4.328125 -0.828125 C 5.117188 -0.828125 5.785156 -1.113281 6.328125 -1.6875 L 7 -1.046875 C 6.675781 -0.671875 6.28125 -0.390625 5.8125 -0.203125 C 5.34375 -0.015625 4.828125 0.078125 4.265625 0.078125 Z M 4.265625 0.078125 "/></g></g></g><g fill="#000000" fill-opacity="1"><g transform="translate(186.720571, 52.913841)"><g><path d="M 1.078125 -7.15625 L 4.09375 -7.15625 C 4.84375 -7.15625 5.507812 -7.003906 6.09375 -6.703125 C 6.6875 -6.398438 7.144531 -5.976562 7.46875 -5.4375 C 7.789062 -4.894531 7.953125 -4.273438 7.953125 -3.578125 C 7.953125 -2.878906 7.789062 -2.257812 7.46875 -1.71875 C 7.144531 -1.175781 6.6875 -0.753906 6.09375 -0.453125 C 5.507812 -0.148438 4.84375 0 4.09375 0 L 1.078125 0 Z M 4.03125 -0.890625 C 4.601562 -0.890625 5.109375 -1 5.546875 -1.21875 C 5.992188 -1.445312 6.332031 -1.765625 6.5625 -2.171875 C 6.800781 -2.578125 6.921875 -3.046875 6.921875 -3.578125 C 6.921875 -4.109375 6.800781 -4.578125 6.5625 -4.984375 C 6.332031 -5.390625 5.992188 -5.703125 5.546875 -5.921875 C 5.109375 -6.148438 4.601562 -6.265625 4.03125 -6.265625 L 2.09375 -6.265625 L 2.09375 -0.890625 Z M 4.03125 -0.890625 "/></g></g></g><g fill="#000000" fill-opacity="1"><g transform="translate(202.477869, 52.913841)"><g><path d="M 2.5 -6.265625 L 0.046875 -6.265625 L 0.046875 -7.15625 L 5.953125 -7.15625 L 5.953125 -6.265625 L 3.5 -6.265625 L 3.5 0 L 2.5 0 Z M 2.5 -6.265625 "/></g></g></g><g fill="#000000" fill-opacity="1"><g transform="translate(215.795351, 52.913841)"><g><path d="M 1.078125 -7.15625 L 2.09375 -7.15625 L 2.09375 0 L 1.078125 0 Z M 1.078125 -7.15625 "/></g></g></g></svg>